<svg preserveAspectRatio="none" overflow="visible" style="display: block;" width="476" height="476" viewBox="0 0 476 476" fill="none" xmlns="http://www.w3.org/2000/svg">
<g id="Play">
<g id="Ellipse 3" filter="url(#filter0_dii_0_4)">
<circle cx="238" cy="234" r="203" fill="url(#paint0_linear_0_4)"/>
<circle cx="238" cy="234" r="197.5" stroke="#F3FF97" stroke-width="11"/>
</g>
<path id="Ellipse 4" d="M74 234.385C74 226.924 74.3406 219.58 75 212.385" stroke="#DFFF52" stroke-width="18" stroke-linecap="round"/>
<path id="Ellipse 4_2" d="M337 358.385C321.488 371.197 303.555 381.133 284 387.385" stroke="#DFFF52" stroke-opacity="0.5" stroke-width="18" stroke-linecap="round"/>
<path id="Ellipse 4_3" d="M85 176.385C108.173 115.583 167.04 72.3854 236 72.3854" stroke="#DFFF52" stroke-width="18" stroke-linecap="round"/>
<g id="Rectangle 22" filter="url(#filter1_d_0_4)">
<path d="M318.131 189.565L264.789 152.874C223.502 124.475 202.859 110.276 186.822 118.709C170.786 127.143 170.786 152.198 170.786 202.309L170.786 275.691C170.786 325.802 170.786 350.857 186.822 359.291C202.859 367.724 223.502 353.525 264.789 325.126L318.131 288.434C350.753 265.996 367.064 254.776 367.064 239C367.064 223.223 350.753 212.004 318.131 189.565Z" fill="#FFEF42"/>
<path d="M318.131 189.565L264.789 152.874C223.502 124.475 202.859 110.276 186.822 118.709C170.786 127.143 170.786 152.198 170.786 202.309L170.786 275.691C170.786 325.802 170.786 350.857 186.822 359.291C202.859 367.724 223.502 353.525 264.789 325.126L318.131 288.434C350.753 265.996 367.064 254.776 367.064 239C367.064 223.223 350.753 212.004 318.131 189.565Z" fill="url(#paint1_linear_0_4)" fill-opacity="0.25"/>
</g>
<path id="Ellipse 5" d="M254.573 192.605C247.507 199.929 233.243 195.273 215.701 185.405C198.16 175.537 188.313 173.036 188.311 161.11C188.309 149.184 215.736 143.16 233.277 153.027C250.819 162.895 261.639 185.281 254.573 192.605Z" fill="#FAFFAF"/>
</g>
<defs>
<filter id="filter0_dii_0_4" x="9.53674e-07" y="0" width="476" height="476" filterUnits="userSpaceOnUse" color-interpolation-filters="sRGB">
<feFlood flood-opacity="0" result="BackgroundImageFix"/>
<feColorMatrix in="SourceAlpha" type="matrix" values="0 0 0 0 0 0 0 0 0 0 0 0 0 0 0 0 0 0 127 0" result="hardAlpha"/>
<feMorphology radius="7" operator="dilate" in="SourceAlpha" result="effect1_dropShadow_0_4"/>
<feOffset dy="4"/>
<feGaussianBlur stdDeviation="14"/>
<feComposite in2="hardAlpha" operator="out"/>
<feColorMatrix type="matrix" values="0 0 0 0 0.0261187 0 0 0 0 0.543269 0 0 0 0 0.396743 0 0 0 0.55 0"/>
<feBlend mode="multiply" in2="BackgroundImageFix" result="effect1_dropShadow_0_4"/>
<feBlend mode="normal" in="SourceGraphic" in2="effect1_dropShadow_0_4" result="shape"/>
<feColorMatrix in="SourceAlpha" type="matrix" values="0 0 0 0 0 0 0 0 0 0 0 0 0 0 0 0 0 0 127 0" result="hardAlpha"/>
<feOffset dx="-10" dy="-16"/>
<feGaussianBlur stdDeviation="10"/>
<feComposite in2="hardAlpha" operator="arithmetic" k2="-1" k3="1"/>
<feColorMatrix type="matrix" values="0 0 0 0 0.0343242 0 0 0 0 0.475962 0 0 0 0 0.0343242 0 0 0 0.4 0"/>
<feBlend mode="multiply" in2="shape" result="effect2_innerShadow_0_4"/>
<feColorMatrix in="SourceAlpha" type="matrix" values="0 0 0 0 0 0 0 0 0 0 0 0 0 0 0 0 0 0 127 0" result="hardAlpha"/>
<feMorphology radius="2" operator="erode" in="SourceAlpha" result="effect3_innerShadow_0_4"/>
<feOffset dx="10" dy="11"/>
<feGaussianBlur stdDeviation="5"/>
<feComposite in2="hardAlpha" operator="arithmetic" k2="-1" k3="1"/>
<feColorMatrix type="matrix" values="0 0 0 0 0.98774 0 0 0 0 1 0 0 0 0 0.918269 0 0 0 0.25 0"/>
<feBlend mode="plus-lighter" in2="effect2_innerShadow_0_4" result="effect3_innerShadow_0_4"/>
</filter>
<filter id="filter1_d_0_4" x="155.786" y="106.295" width="226.278" height="275.41" filterUnits="userSpaceOnUse" color-interpolation-filters="sRGB">
<feFlood flood-opacity="0" result="BackgroundImageFix"/>
<feColorMatrix in="SourceAlpha" type="matrix" values="0 0 0 0 0 0 0 0 0 0 0 0 0 0 0 0 0 0 127 0" result="hardAlpha"/>
<feOffset dy="5"/>
<feGaussianBlur stdDeviation="7.5"/>
<feComposite in2="hardAlpha" operator="out"/>
<feColorMatrix type="matrix" values="0 0 0 0 0.2114 0 0 0 0 0.490385 0 0 0 0 0.155603 0 0 0 0.4 0"/>
<feBlend mode="normal" in2="BackgroundImageFix" result="effect1_dropShadow_0_4"/>
<feBlend mode="normal" in="SourceGraphic" in2="effect1_dropShadow_0_4" result="shape"/>
</filter>
<linearGradient id="paint0_linear_0_4" x1="415.5" y1="437" x2="187.5" y2="54.5" gradientUnits="userSpaceOnUse">
<stop stop-color="#49BF1D"/>
<stop offset="1" stop-color="#91FA11"/>
</linearGradient>
<linearGradient id="paint1_linear_0_4" x1="180" y1="147" x2="291.5" y2="309.5" gradientUnits="userSpaceOnUse">
<stop stop-color="#E24401" stop-opacity="0"/>
<stop offset="1" stop-color="#E24401"/>
</linearGradient>
</defs>
</svg>
